<svg xmlns="http://www.w3.org/2000/svg" width="16" height="16" viewBox="0 0 16 16"><g fill="none" fill-rule="evenodd"><rect width="16" height="16" fill="#FFF" rx="2"/><path fill="#8D45E6" fill-rule="nonzero" d="M5.142 3.115c1.516-1.487 3.98-1.487 5.513 0l.995.975c.3.295.3.775 0 1.084a.803.803 0 0 1-1.106 0L9.55 4.2a2.36 2.36 0 0 0-3.302 0 2.249 2.249 0 0 0 0 3.236l2.307 2.26c.3.295.3.775 0 1.084a.803.803 0 0 1-1.106 0L5.142 8.52a3.79 3.79 0 0 1-1.106-3.236c.126-.79.49-1.564 1.106-2.168zm5.591 9.772c-1.516 1.484-3.98 1.484-5.513 0l-.995-.974a.763.763 0 0 1 0-1.082.804.804 0 0 1 1.106 0l.995.974a2.363 2.363 0 0 0 3.302 0 2.242 2.242 0 0 0 0-3.23L7.32 6.301a.763.763 0 0 1 0-1.082.804.804 0 0 1 1.106 0l2.306 2.257a3.78 3.78 0 0 1 1.106 3.23 3.872 3.872 0 0 1-1.106 2.18z"/></g></svg>