<svg xmlns="http://www.w3.org/2000/svg" width="84" height="30" viewBox="0 0 84 30"><path d="M16.4 27.2c-.5.5-1 .9-1.5 1.2-1.2.8-2.5 1.3-3.9 1.5-2.9.4-5.9-.5-8.1-2.7L.6 24.9c-.7-.7-.7-1.9 0-2.7s1.9-.7 2.7 0l2.3 2.3c1.8 1.8 4.4 2.1 6.5 1.1.6-.3 1.1-.6 1.6-1.1.5-.5.8-1 1.1-1.6 1-2.1.6-4.7-1.1-6.5l-5.6-5.6c-.7-.7-.7-1.9 0-2.7.7-.7 1.9-.7 2.7 0l5.6 5.6c2.2 2.2 3.1 5.2 2.7 8.1-.2 1.4-.7 2.7-1.5 3.9-.3.6-.7 1.1-1.2 1.5zM2.8 2.8c.5-.5 1-.9 1.5-1.2C5.5.8 6.8.3 8.2.1c2.9-.4 5.9.5 8.1 2.7l2.3 2.3c.7.7.7 1.9 0 2.7-.7.7-1.9.7-2.7 0l-2.3-2.3c-1.8-1.8-4.4-2.1-6.5-1.1-.6.2-1.1.6-1.6 1.1-.5.5-.9 1-1.1 1.6-1 2.1-.6 4.7 1.1 6.5l5.6 5.6c.7.7.7 1.9 0 2.7-.7.7-1.9.7-2.7 0l-5.6-5.6C.6 14.1-.3 11 .1 8.2c.2-1.4.7-2.7 1.5-3.9.3-.6.7-1.1 1.2-1.5z" fill="#8d45e6"/><path d="M38.4 14c3.9.8 6 3.2 6 6.3 0 3.4-2.8 6.7-7.8 6.7-6 0-8.3-3.9-8.3-7.1H32c.3 1.8 1.5 3.5 4.6 3.5 2.6 0 4-1.1 4-2.9 0-1.4-1.1-2.6-3-3l-3.1-.7c-3.4-.7-5.6-2.9-5.6-6.2 0-3.7 3.4-6.8 7.5-6.8 5.2 0 7.6 3.5 7.6 6.7h-3.7c-.2-1.4-1-3.4-3.9-3.4-2.2 0-3.8 1.5-3.8 3.2 0 1.4.9 2.5 2.6 2.8l3.2.9zm25.8 12.5V4h3.6v22.5h-3.6zm11.4-3.1h7.9v3.2H71.1v-3.1l7.7-8.8h-7.5v-3.2h12.1v3.1l-7.8 8.8zm-25.4-6.1h7.4c-.1-1.8-1.2-3.4-3.7-3.4-2.2 0-3.5 1.8-3.7 3.4zm3.7-6.4c4.7 0 7.4 3.1 7.4 7.9 0 .6-.1 1.1-.1 1.2H50.1c.1 2.3 1.9 4 4.1 4 1.2 0 2.7-.5 3.3-1.8H61c-.7 2.8-3.2 4.9-6.7 4.9-4.1 0-7.7-3-7.7-8.1-.1-4.9 3.5-8.1 7.3-8.1z" fill="#2e343d"/></svg>